<svg width="440" height="111" viewBox="0 0 440 111" fill="none" xmlns="http://www.w3.org/2000/svg">
<g clip-path="url(#clip0_8866_3191)">
<path fill-rule="evenodd" clip-rule="evenodd" d="M220.026 50.7822C220.196 55.7226 220.047 60.875 220.047 65.8366C220.047 71.6039 220.026 73.7243 217.476 77.9438C213.714 84.114 201.028 84.0716 197.182 77.3077C193.42 70.6922 193.548 58.8607 197.755 52.9025C201.474 47.6441 213.629 46.5203 220.026 50.8034V50.7822ZM220.047 42.6824C217.964 42.4916 215.924 41.6859 213.353 41.4315C195.503 39.6504 185.069 48.8314 186.301 69.1231C186.918 79.0463 190.721 86.0223 198.839 88.3971C214.054 92.8498 220.514 81.7604 221.577 81.1667L223.914 88.1638H229.057C227.761 77.3925 227.825 39.1839 228.143 26.9707H220.047V42.6824Z" fill="black"/>
<path fill-rule="evenodd" clip-rule="evenodd" d="M158.761 38.9082C159.738 40.6257 160.142 43.5094 160.716 45.7781C161.906 50.4853 166.347 59.1151 168.047 64.7128H149.347C150.749 60.7478 152.704 56.3375 154.341 52.3724C155.233 50.2309 156.104 48.4922 156.721 46.075C157.039 44.8028 157.273 43.8062 157.592 42.4704L158.739 38.887L158.761 38.9082ZM131.624 87.9518H140.23C140.868 86.0647 145.989 72.24 147.222 71.8796L170.788 71.922L177.27 87.973H186.514C185.812 84.9409 161.969 27.1827 161.141 26.1226H156.848C155.318 28.6882 146.032 52.224 144.098 56.9736C141.973 62.2108 139.954 67.2148 137.787 72.4521L131.624 87.9518Z" fill="black"/>
<path fill-rule="evenodd" clip-rule="evenodd" d="M249.139 66.9392C251.944 66.3879 255.153 66.4515 258.128 66.5999C264.8 66.9392 263.823 67.2148 263.801 70.3317C263.738 75.463 262.675 78.8343 256.024 81.0395C244.039 85.0045 238.832 75.9082 243.082 70.1833C244.336 68.5082 246.334 67.5117 249.139 66.9604V66.9392ZM236.431 45.2481C237.281 47.2624 237.409 50.1885 238.747 51.7151C244.57 49.5312 248.671 47.8985 256.066 48.259C264.035 48.6618 264.673 53.5174 263.801 61.2355C260.444 61.3627 255.854 60.6418 251.944 60.6842C227.697 60.9386 227.123 88.1638 247.396 88.6515C258.744 88.9272 261.591 83.2658 264.311 81.1879C265.48 82.4177 266.309 86.0647 266.755 88.1214L272.727 88.185C271.6 80.5942 271.218 74.8905 271.77 67.0028C272.153 61.4899 273.109 51.6515 270.304 47.4532C263.1 36.7455 239.449 42.6188 236.41 45.2269L236.431 45.2481Z" fill="black"/>
<path fill-rule="evenodd" clip-rule="evenodd" d="M308.005 27.6149C308.005 41.4607 308.005 55.3066 308.005 69.1524C308.005 86.2212 307.155 92.1582 328.065 87.6842L326.918 81.6625C321.222 82.659 316.824 83.8464 316.165 77.2522C315.74 73.0751 315.995 32.2797 316.08 27L308.026 27.5937L308.005 27.6149Z" fill="black"/>
<path d="M288 31.2482C290.917 29.2548 296.989 30.2464 297 30.2482V35.7482C297 35.7482 293.976 36.5648 293 37.2482C292.027 37.9296 292 41.2282 292 41.2482V44.7482H301V50.7482H292V88.7482H284V50.7482H276V44.7482H284V37.2482C284.014 37.211 285.685 32.8304 288 31.2482Z" fill="black"/>
<path d="M374 64.5C374 78.031 364.374 89 352.5 89C340.626 89 331 78.031 331 64.5C331 50.969 340.626 40 352.5 40C364.374 40 374 50.969 374 64.5ZM338.884 64.5C338.884 73.0693 344.98 80.016 352.5 80.016C360.02 80.016 366.116 73.0693 366.116 64.5C366.116 55.9307 360.02 48.984 352.5 48.984C344.98 48.984 338.884 55.9307 338.884 64.5Z" fill="black"/>
<path d="M425.996 87.6201L426 87.6309H425.993L425.968 87.709H425.109L418.338 88.3027L408.336 57.0996L397.968 88.709L390.5 88.1309L390.505 88.1143H390.338L376 44.4062H384L394.251 76.4102L404.306 45H412.306L412.131 45.5303L422.111 75.8262L432.306 44H440.306L425.996 87.6201Z" fill="black"/>
<path fill-rule="evenodd" clip-rule="evenodd" d="M44.0098 87.8248L18.9982 87.6552C15.4282 87.6552 9.09557 87.8672 8.88307 81.0609C8.77681 77.9652 12.7719 72.1555 14.2381 69.7595C22.6958 56.0196 30.5159 41.6861 38.8248 28.0523C40.9711 24.5113 42.9261 21.1824 44.9449 17.705C47.1124 13.9732 48.5999 9.47808 53.2112 8.9904C59.0338 8.3543 60.4576 12.701 62.4764 16.2844C64.5164 19.9102 66.5564 23.1119 68.5965 26.6317L80.9217 47.6655C84.3855 53.2844 90.0806 63.8437 93.2468 68.6569C94.4581 70.4804 95.2656 72.007 96.3069 73.8305C96.8594 74.7847 97.3482 75.7388 97.7944 76.4597C99.7494 79.513 100.259 82.4603 97.4544 85.3228C94.6919 88.1853 89.7405 87.5279 84.938 87.5279L68.8515 87.5703C63.6027 87.5703 65.0689 88.5033 60.3513 81.7394C59.2251 80.1279 58.3113 78.8133 57.3125 77.3503C56.6963 76.4385 56.2925 76.0569 55.74 75.2512C55.0388 74.191 54.8688 73.7881 53.785 73.1308C52.2337 76.3537 46.6024 83.1176 44.5199 86.7858L43.9673 87.846L44.0098 87.8248ZM53.9762 111C55.4 110.067 56.0375 108.456 57.0575 107.078C58.0776 105.699 59.1826 104.448 60.0751 103.091C63.6026 97.6208 63.7514 96.5606 67.2364 96.5818C74.9503 96.6242 87.5305 97.3663 94.7131 96.5182C102.129 95.6277 107.57 89.8603 108.632 82.7148C109.652 75.9933 104.637 69.7807 100.833 63.1864C91.2281 46.5205 79.6041 27.8827 70.254 11.4288C66.7902 5.38582 63.5176 0.10616 54.465 0.000142478C45.6036 -0.105875 41.8848 5.04656 38.2085 11.344L7.7568 63.2288C5.99302 66.2185 4.27175 69.0385 2.57172 72.0494C-4.07963 83.7749 3.01798 95.0552 13.9194 96.4122C21.187 97.3027 33.3422 96.5182 41.2898 96.5606C44.4986 96.5818 44.4561 97.2815 45.8161 99.2534L53.9762 111.021V111Z" fill="url(#paint0_linear_8866_3191)"/>
<path fill-rule="evenodd" clip-rule="evenodd" d="M24.9482 76.0145L35.0846 76.1205L50.6611 48.4712C54.8687 40.5836 58.715 50.5068 59.7563 52.3091L73.0377 76.0993L83.5354 76.2053L65.0476 42.9372C59.9263 34.3498 48.2598 34.5406 43.4573 42.8947C41.311 46.6478 39.356 50.0403 37.2522 53.9629L24.9695 75.9933L24.9482 76.0145Z" fill="url(#paint1_linear_8866_3191)"/>
</g>
<defs>
<linearGradient id="paint0_linear_8866_3191" x1="107.91" y1="120.174" x2="217.963" y2="120.174" gradientUnits="userSpaceOnUse">
<stop stop-color="#CB54FE"/>
<stop offset="1" stop-color="#8B0EFE"/>
</linearGradient>
<linearGradient id="paint1_linear_8866_3191" x1="130.205" y1="121.117" x2="192.201" y2="121.117" gradientUnits="userSpaceOnUse">
<stop stop-color="#CB54FE"/>
<stop offset="1" stop-color="#8B0EFE"/>
</linearGradient>
<clipPath id="clip0_8866_3191">
<rect width="440" height="111" fill="white"/>
</clipPath>
</defs>
</svg>
