<svg width="109" height="111" viewBox="0 0 109 111" fill="none" xmlns="http://www.w3.org/2000/svg">
<g clip-path="url(#clip0_2620_2317)">
<path fill-rule="evenodd" clip-rule="evenodd" d="M44.0098 87.8247L18.9982 87.655C15.4282 87.655 9.09557 87.8671 8.88307 81.0608C8.77681 77.9651 12.7719 72.1553 14.2381 69.7593C22.6958 56.0195 30.5159 41.686 38.8248 28.0522C40.9711 24.5112 42.9261 21.1823 44.9449 17.7049C47.1124 13.9731 48.5999 9.47796 53.2112 8.99028C59.0338 8.35418 60.4576 12.7009 62.4764 16.2843C64.5164 19.91 66.5564 23.1118 68.5965 26.6315L80.9217 47.6653C84.3855 53.2843 90.0806 63.8436 93.2468 68.6568C94.4581 70.4803 95.2656 72.0069 96.3069 73.8304C96.8594 74.7846 97.3482 75.7387 97.7944 76.4596C99.7494 79.5129 100.259 82.4602 97.4544 85.3227C94.6919 88.1851 89.7405 87.5278 84.938 87.5278L68.8515 87.5702C63.6026 87.5702 65.0689 88.5032 60.3513 81.7393C59.2251 80.1278 58.3113 78.8132 57.3125 77.3502C56.6963 76.4384 56.2925 76.0568 55.74 75.251C55.0388 74.1909 54.8688 73.788 53.785 73.1307C52.2337 76.3536 46.6024 83.1175 44.5199 86.7857L43.9673 87.8459L44.0098 87.8247ZM53.9762 111C55.4 110.067 56.0375 108.456 57.0575 107.077C58.0776 105.699 59.1826 104.448 60.0751 103.091C63.6026 97.6207 63.7514 96.5605 67.2365 96.5817C74.9503 96.6241 87.5305 97.3662 94.7131 96.5181C102.129 95.6275 107.57 89.8602 108.632 82.7146C109.652 75.9931 104.637 69.7805 100.833 63.1863C91.2281 46.5204 79.6041 27.8825 70.254 11.4287C66.7902 5.38569 63.5176 0.106038 54.465 2.04076e-05C45.6036 -0.105997 41.8848 5.04644 38.2085 11.3439L7.7568 63.2287C5.99302 66.2184 4.27175 69.0384 2.57172 72.0493C-4.07963 83.7748 3.01798 95.055 13.9194 96.4121C21.187 97.3026 33.3422 96.5181 41.2898 96.5605C44.4986 96.5817 44.4561 97.2814 45.8161 99.2533L53.9762 111.021V111Z" fill="url(#paint0_linear_2620_2317)"/>
<path fill-rule="evenodd" clip-rule="evenodd" d="M24.9482 76.0143L35.0846 76.1203L50.6611 48.471C54.8687 40.5833 58.715 50.5065 59.7563 52.3088L73.0377 76.0991L83.5354 76.2051L65.0476 42.9369C59.9263 34.3495 48.2598 34.5403 43.4573 42.8945C41.311 46.6475 39.356 50.0401 37.2522 53.9627L24.9695 75.9931L24.9482 76.0143Z" fill="url(#paint1_linear_2620_2317)"/>
</g>
<defs>
<linearGradient id="paint0_linear_2620_2317" x1="107.91" y1="120.174" x2="217.963" y2="120.174" gradientUnits="userSpaceOnUse">
<stop stop-color="#CB54FE"/>
<stop offset="1" stop-color="#8B0EFE"/>
</linearGradient>
<linearGradient id="paint1_linear_2620_2317" x1="130.205" y1="121.116" x2="192.201" y2="121.116" gradientUnits="userSpaceOnUse">
<stop stop-color="#CB54FE"/>
<stop offset="1" stop-color="#8B0EFE"/>
</linearGradient>
<clipPath id="clip0_2620_2317">
<rect width="109" height="111" fill="white"/>
</clipPath>
</defs>
</svg>
